<svg>
      <path d="M15.611 15.184c4.24-5.768 6.878-5.483 13.313-.627l.67.507C34.422 18.726 36.708 20 40 20a2 2 0 100-4c-2.066 0-3.901-1.022-7.989-4.123l-.678-.514c-3.76-2.836-5.959-4.076-8.695-4.37-3.684-.399-7.058 1.48-10.25 5.822a2 2 0 103.223 2.37zm80.777 0c-4.24-5.768-6.877-5.483-13.312-.627l-.67.507C77.578 18.726 75.292 20 72 20a2 2 0 110-4c2.066 0 3.901-1.022 7.989-4.123l.678-.514c3.76-2.836 5.959-4.076 8.695-4.37 3.684-.399 7.058 1.48 10.25 5.822a2 2 0 11-3.224 2.37z"
            fill="colors.eyebrows"/>
</svg>