      <svg>
        <path fill-rule="evenodd" clip-rule="evenodd" d="M56.997 12.82c0-.003 0-.003 0 0zM96.12 7.602c1.463.56 9.19 6.427 7.865 9.153a.809.809 0 01-1.291.224c-.545-.517-1.576-1.112-1.706-1.184-5.106-2.835-11.299-1.925-16.73-.91-6.12 1.145-12.11 3.487-18.387 2.68-2.04-.263-6.081-1.222-7.626-2.963-.471-.532-.066-1.381.634-1.434 1.443-.11 2.861-.857 4.33-1.274 3.653-1.039 7.398-1.563 11.114-2.29 6.62-1.298 15.17-4.53 21.797-2.002z"
              fill="colors.eyebrows"/>
        <path fill-rule="evenodd" clip-rule="evenodd" d="M58.76 12.759c-1.171.04-2.797 3.557-.561 3.677 2.235.119 1.73-3.718.56-3.677zm-3.757.031c.001-.003.001-.003 0 0zM15.881 7.573c-1.464.56-9.19 6.427-7.866 9.154a.809.809 0 001.291.224c.546-.518 1.577-1.113 1.707-1.185 5.106-2.834 11.298-1.925 16.73-.909 6.12 1.144 12.109 3.486 18.387 2.679 2.04-.263 6.081-1.221 7.626-2.962.471-.532.066-1.382-.634-1.435-1.444-.11-2.862-.856-4.33-1.274-3.654-1.038-7.399-1.563-11.115-2.29-6.62-1.297-15.17-4.53-21.796-2.002z"
              fill="colors.eyebrows"/>
        <path fill-rule="evenodd" clip-rule="evenodd" d="M54.973 11.79c1.17.04 2.762 4.5.525 4.673-2.237.173-1.696-4.715-.525-4.674z"
              fill="colors.eyebrows"/>
      </svg>