<svg >
      <path fill-rule="evenodd" clip-rule="evenodd" d="M84.504 93.841c-11.51.378-16.646 5.88-20.513.289-2.903-4.198-1.688-11.256 1.024-15.227 3.859-5.652 9.094-2.918 14.947-3.563 1.592-.175 3.19-.617 4.542-1.34 1.352.723 2.95 1.165 4.542 1.34 5.854.645 11.089-2.089 14.948 3.563 2.712 3.97 3.926 11.03 1.024 15.227-3.868 5.591-9.002-.667-20.514-.289zM140.391 26c-3.424 14.075-4.998 28.434-7.481 42.671a319.343 319.343 0 01-1.685 8.879c-.127.62-.251 2.923-.862 3.214-1.851.884-5.624-3.817-6.633-4.879-2.533-2.666-5.045-5.356-8.131-7.448-6.234-4.227-13.534-6.726-21.129-7.32-3.178-.248-7.475.186-10.47 1.993-2.995-1.807-7.292-2.24-10.47-1.992-7.596.593-14.895 3.092-21.13 7.32-3.085 2.091-5.597 4.781-8.13 7.447-1.01 1.062-4.782 5.763-6.633 4.88-.61-.292-.735-2.595-.862-3.215a319.348 319.348 0 01-1.685-8.879C32.607 54.434 31.034 40.075 27.61 26c-.997 0-1.872 18.748-1.983 20.495-.452 7.094-.98 14.03-.305 21.131 1.164 12.249 2.377 27.608 11.71 36.962 8.434 8.451 20.678 10.218 31.24 15.553 1.36.687 3.163 1.535 5.108 2.23 2.049 1.563 6.113 2.629 10.794 2.629 4.91 0 9.141-1.173 11.08-2.862a46.96 46.96 0 004.475-1.997c10.56-5.336 22.805-7.102 31.238-15.553 9.334-9.354 10.547-24.713 11.712-36.962.674-7.1.146-14.037-.306-21.131-.112-1.747-.986-20.495-1.982-20.495z" fill="colors.facialHair"/>
</svg>