<svg>
      <path d="M83.998 66.938c-2.5-3.336-12.267-4.749-19.277-3.474-9.653 1.757-13.744 12.303-12.506 14.215.772 1.191 2.482.793 4.26.379.814-.19 1.642-.383 2.401-.428 1.486-.089 3.34.218 5.446.567 4.981.824 11.37 1.88 17.628-1.508a6.041 6.041 0 002.048-1.85 6.041 6.041 0 002.048 1.85c6.257 3.389 12.647 2.332 17.628 1.508 2.106-.349 3.96-.656 5.446-.567.759.045 1.587.238 2.401.428 1.778.414 3.488.812 4.26-.379 1.238-1.912-2.853-12.458-12.507-14.215-7.009-1.275-16.775.138-19.276 3.474z" fill="colors.facialHair"/>
</svg>