<svg>
      <path d="M57.548 69.678c1.627-.975 3.207-1.922 4.84-2.546 5.19-1.983 14.82-1.42 21.612 2.165 6.792-3.586 16.422-4.148 21.612-2.165 1.633.624 3.213 1.57 4.84 2.546 4.125 2.473 8.551 5.126 14.91 3.15.369-.114.729.217.618.58-1.373 4.51-9.007 7.599-11.601 7.7-6.207.242-11.753-2.261-17.126-4.686-4.444-2.006-8.77-3.958-13.253-4.26-4.483.302-8.809 2.254-13.252 4.26-5.374 2.425-10.92 4.928-17.126 4.686-2.594-.101-10.228-3.19-11.602-7.7-.11-.363.25-.694.619-.58 6.358 1.976 10.784-.677 14.91-3.15z" fill="colors.facialHair"/>
</svg>