<svg>
<path fill-rule="evenodd" clip-rule="evenodd" d="M76.739 17.439c1.188 2.084 1.852 4.35 2.088 6.73.04.383.061.762.065 1.136v.211c-.093 10.22-13.611 16.856-22.478 17.351-.632.036-1.264.053-1.892.053h-.014c-10.082-.002-19.562-4.553-22.533-14.847a13.794 13.794 0 01-.522-3.818c0-3.357 1.118-6.82 3.15-9.401.237-.3.533-.589.83-.878.366-.358.735-.718.995-1.104.476-.705.645-.687.669-.737.022-.048-.083-.156-.182-.988-.058-.49-.218-.929-.38-1.37-.212-.582-.426-1.168-.41-1.881.053-2.39 1.768-5.078 4.053-5.942 1.29-.486 2.675-.344 3.967.078.586.191 1.177.668 1.748 1.13.573.46 1.125.906 1.633 1.034.973.244 2.832-.134 4.478-.468.954-.194 1.837-.374 2.435-.41 1.394-.082 2.797-.122 4.192-.033.279.018.725.12 1.213.23.834.19 1.787.407 2.228.279.448-.13.913-.512 1.395-.908.485-.397.986-.809 1.505-.993a8.099 8.099 0 012.72-.463c.162 0 .325.005.487.014 2.329.133 4.995 1.185 5.984 3.427.798 1.809.247 3.294-.338 4.872-.194.524-.392 1.057-.546 1.617-.195.709-.31.847-.29.96.022.114.181.202.537.825.075.13.346.437.61.737.153.173.303.343.413.476.797.97 1.567 1.988 2.19 3.08zM58.299 36.97c3.069 2.96 6.669-1.57 7.148-4.385.843-10.061-15.069-8.744-19.224-3.003-2.102 2.904-.617 6.816 2.575 8.217 1.395.612 2.582.905 3.585-.05.797-.761 1.024-3.52.488-4.269-.28-.39-.661-.5-1.044-.61-.544-.155-1.09-.312-1.344-1.281-.57-2.17 1.807-2.507 3.296-2.625.279-.022.607-.06.967-.102 1.691-.199 4.059-.477 5.035.513 1.3 1.32.257 2.343-.832 3.41-1.209 1.186-2.473 2.425-.65 4.184zm-9.582-20.46c-.584-.99-1.748-1.23-2.732-.787-1.812.824-.95 3.513.757 3.743 1.617.217 2.777-1.6 1.975-2.956zm15.23.868c-.856 3.006-5.636-.378-2.936-2.29 1.552-1.099 3.447.491 2.936 2.29z"
      fill="colors.graphic"/>
</svg>