<svg>
  <path fill-rule="evenodd" clip-rule="evenodd" d="M71.764 15.26c1.59-.184 4.784-.552 5.196.975.302 1.091-1.165 2.077-2.263 2.815-.336.226-.637.428-.843.604l-.164.139c-1.456 1.241-2.965 2.528-4.661 3.408a12.85 12.85 0 01-2.926 1.083c-.279.07-.434.107-.55.196-.148.112-.235.305-.43.739l-.037.082c-.45 1.001-.721 2.18-.993 3.363-.234 1.016-.468 2.035-.818 2.95-1.704 4.453-5.767 14.8-12.267 10.258-1.707-1.193-2.774-3.31-3.75-5.244-.206-.41-.408-.81-.61-1.192-1.335-2.512-2.613-5.508-3.381-8.25a10.342 10.342 0 01-.206-.912c-.13-.683-.2-1.048-.923-1.503-.37-.233-.893-.363-1.403-.49-.35-.088-.695-.174-.981-.29-1.5-.61-2.813-1.436-4.088-2.43-1.238-.966-6.11-4.951-2.132-5.691 1.804-.336 4.16-.217 6.001-.124l.066.004c2.027.102 4.073.57 5.877 1.535l.012.007c.89.477 1.22.654 1.545.646.19-.005.379-.074.679-.182.236-.086.542-.197.973-.322-3.322-1.125-6.649-2.997-8.884-5.78-1.207-1.503-4-7.654-1.9-9.065 1.791-1.206 2.415 2.005 2.881 4.4.19.975.353 1.814.558 2.167 1.24 2.136 3.281 3.236 5.32 4.336.58.313 1.161.626 1.723.963-1.741-1.668-3.04-3.505-3.674-5.868l-.08-.294c-.315-1.143-.903-3.28-.439-4.192.529-1.04 1.772-1.106 2.458-.22.41.529.48 1.514.542 2.399.031.448.06.87.132 1.192.35 1.589.921 2.81 1.982 4.04 1.505 1.746 3.417 3.175 5.669 3.727 5.127 1.259 6.92-4.107 7.608-8.244.04-.243.056-.523.074-.817.054-.932.117-1.992.976-2.362 1.367-.589 1.896.746 1.936 1.781.087 2.314-1.056 5.857-2.166 7.845 2.79-1.732 5.003-4.478 5.899-7.688.105-.378.15-.905.197-1.468.103-1.205.22-2.58.977-3.035 1.54-.924 2.029.917 1.975 2.022-.319 6.515-5.298 12.44-11.488 14.069.21.105.388.2.542.28.954.505.989.524 2.306-.257a13.03 13.03 0 012.827-1.23c1.47-.452 3.055-.682 4.58-.817.146-.012.331-.034.546-.059zM58.86 24.62c-.067 3.271-3.238 3.04-2.822.095.326-2.311 3.681-2.233 2.822-.095zm-1.93 9.016c-.49 1.56-4.332 2.121-3.895-.17.369-1.942 4.554-2.026 3.895.17zM51.703 27c-2.82 0-1.895-4.875.996-3.861 2.275.796 1.327 3.861-.996 3.861z"
        fill="colors.graphic"/>
</svg>