<svg>
  <path fill-rule="evenodd" clip-rule="evenodd" d="M65.282 19.929c-.298 2.777-5.693 4.274-7.672 2.448-.911-.842-.927-2.574-1.129-3.702-.38-2.133-.655-4.258-.75-6.423-.058-1.325-.406-2.385 1.044-2.582.883-.12 1.793.468 2.515.933 2.447 1.573 6.33 6.138 5.992 9.326zm-12.4-5.853c.284 2.825 1.32 7.739-.936 10.105-2.016 2.115-6.16.018-6.783-2.473-.773-3.09 2.275-6.78 4.145-8.87.574-.641 1.844-2.412 2.836-1.82.382.228.693 2.612.737 3.058zm1.44 11.03c.646-1.523 6.912 3.019 3.953 5.18-.483.352-4.16 1.465-4.865.941-1.485-1.104.43-4.964.911-6.12zm19.003-7.58c-.443-15.475-20.26-19.84-30.85-11.022-4.048 3.372-6.362 7.5-6.468 12.779-.09 4.471.619 8.689 4.034 11.764 1.481 1.333 2.46 2.149 3.245 3.97.824 1.906 1.2 4.335 2.742 5.832.85.826 2.09 1.493 3.266.96 2.162-.979 1.47-3.977 2.125-5.648 2.037 4.968 7.211 6.553 8.15.249 1.031 1.819 3.726 4.2 5.7 2.21.812-.82.934-2.15 1.072-3.227.245-1.912-.18-2.664 1.355-3.975 4.039-3.45 5.773-8.672 5.63-13.891z"
        fill="colors.graphic"/>
</svg>