      <svg>
        <path fill-rule="evenodd" clip-rule="evenodd" d="M35.118 29.872C36.176 20.38 44.226 13 54 13c9.804 0 17.874 7.426 18.892 16.96.082.767-.775 2.04-1.85 2.04H37.088c-1.08 0-2.075-1.178-1.97-2.128z" fill="#000" fill-opacity=".7"/>
        <path d="M69.586 32H38.414c1.306-4.617 5.55-8 10.586-8 1.8 0 3.5.433 5 1.2 1.5-.767 3.2-1.2 5-1.2 5.035 0 9.28 3.383 10.586 8z"
              fill="colors.mouth"/>
        <path d="M66.567 17.75c-.493.162-1.02.25-1.567.25H44a4.98 4.98 0 01-2.243-.53A18.923 18.923 0 0154 13c4.818 0 9.218 1.794 12.567 4.75z" fill="#fff"/>
      </svg>