      <svg >
        <path fill-rule="evenodd" clip-rule="evenodd" d="M35.118 15.128C36.176 24.62 44.226 32 54 32c9.804 0 17.874-7.426 18.892-16.96.082-.767-.775-2.04-1.85-2.04H37.088c-1.08 0-2.075 1.178-1.97 2.128z" fill="#000" fill-opacity=".7"/>
        <path d="M70 13H39a5 5 0 005 5h21a5 5 0 005-5z" fill="#fff"/>
        <path d="M66.694 27.138A10.964 10.964 0 0059 24c-1.8 0-3.5.433-5 1.2-1.5-.767-3.2-1.2-5-1.2-2.995 0-5.71 1.197-7.693 3.138A18.93 18.93 0 0054 32c4.88 0 9.329-1.84 12.694-4.862z"
            fill="colors.mouth"/>
      </svg>