      <svg>
        <path fill-rule="evenodd" clip-rule="evenodd" d="M40 53c-13.255 0-24-10.745-24-24 0-2.435.363-4.785 1.037-7H10.5a2.5 2.5 0 010-5h8c.229 0 .45.03.66.088C23.297 9.866 31.08 5 40 5c9.352 0 17.455 5.35 21.416 13.155C63.493 15.039 66.949 13 70.862 13c4.013 0 7.545 2.144 9.603 5.394C84.38 10.46 92.553 5 102 5c8.92 0 16.703 4.866 20.84 12.088a2.52 2.52 0 01.66-.088h8a2.5 2.5 0 110 5h-6.537A24.006 24.006 0 01126 29c0 13.255-10.745 24-24 24S78 42.255 78 29c0-1.422.124-2.815.36-4.169C78.277 20.455 74.915 17 70.863 17c-3.736 0-6.887 2.94-7.42 6.83.365 1.665.558 3.395.558 5.17 0 13.255-10.745 24-24 24zm0-4c11.046 0 20-8.954 20-20S51.046 9 40 9s-20 8.954-20 20 8.954 20 20 20zm82-20c0 11.046-8.954 20-20 20s-20-8.954-20-20 8.954-20 20-20 20 8.954 20 20z" fill="#000" fill-opacity=".1"/>
        <path fill-rule="evenodd" clip-rule="evenodd" d="M40 51c-13.255 0-24-10.745-24-24 0-2.435.363-4.785 1.037-7H10.5a2.5 2.5 0 010-5h8c.229 0 .45.03.66.088C23.297 7.866 31.08 3 40 3c9.352 0 17.455 5.35 21.416 13.155C63.493 13.039 66.949 11 70.862 11c4.013 0 7.545 2.144 9.603 5.394C84.38 8.46 92.553 3 102 3c8.92 0 16.703 4.866 20.84 12.088a2.52 2.52 0 01.66-.088h8a2.5 2.5 0 110 5h-6.537A24.006 24.006 0 01126 27c0 13.255-10.745 24-24 24S78 40.255 78 27c0-1.422.124-2.815.36-4.169C78.277 18.455 74.915 15 70.863 15c-3.736 0-6.887 2.94-7.42 6.83.365 1.665.558 3.395.558 5.17 0 13.255-10.745 24-24 24zm0-4c11.046 0 20-8.954 20-20S51.046 7 40 7s-20 8.954-20 20 8.954 20 20 20zm82-20c0 11.046-8.954 20-20 20s-20-8.954-20-20 8.954-20 20-20 20 8.954 20 20z"
              fill="colors.glasses"/>
      </svg>