    <svg>
      <path d="M44.826 105.591c-.382-1.606-.769-3.229-1.124-4.91-1.952-9.236-2.956-20.223 2.884-39.676-6.903 22.995-4.243 34.16-1.76 44.586 1.238 5.196 2.432 10.208 2.377 16.409.02 2.295-.38 4.285-1.104 6.057.723-1.772 1.124-3.762 1.104-6.057.055-6.201-1.14-11.213-2.377-16.409zm173.55 8.643c-.131.386-.156.805-.173 1.226.053-.412.111-.821.173-1.226zm-.33 2.579a47.23 47.23 0 00-.223 3.347c-29.04-10.756-54.946-29.617-70.328-51.548-12.093 15.618-31.955 23.04-51.622 30.391-17.386 6.498-34.619 12.939-46.2 24.933.388-.544.755-1.051 1.086-1.49 10.998-14.601 28.764-21.887 46.7-29.242 18.816-7.716 37.817-15.508 49.387-31.902 15.398 24.088 41.819 44.648 71.163 55.625.014-.038.026-.076.037-.114z"
            fill="#000" fill-opacity=".16"/>
      <path d="M32.005 280H33v-9c0-39.764 32.236-72 72-72h4v-18.389c-17.53-8.328-30.048-25.496-31.791-45.744C71.43 134.002 67 129.019 67 123v-13c0-.794.077-1.569.224-2.32 9.114-5.815 19.645-10.133 30.235-14.476 18.815-7.716 37.817-15.508 49.386-31.902 11.958 18.706 30.562 35.283 52.021 46.898.088.587.134 1.188.134 1.8v13c0 6.019-4.431 11.002-10.209 11.867-1.743 20.248-14.26 37.416-31.791 45.744V199h4c39.764 0 72 32.236 72 72v9c24.414-13.94 15.859-33.211 6.284-48.463-1.368-2.179-2.756-4.276-4.073-6.264-3.479-5.255-6.453-9.746-7.201-12.97a6.578 6.578 0 01-.179-1.303c-.144-4.617 3.141-7.836 7.164-11.777 6.21-6.084 14.178-13.891 14.008-31.223-.514-15.834-9.801-22.253-18.109-27.995-6.924-4.785-13.168-9.101-13.091-18.005a46.419 46.419 0 01.244-5.189c.118-.4.135-.828.152-1.254l.004-.093c.444-3.443 1.202-6.622 1.976-9.873 2.555-10.725 5.295-22.232-2.376-46.591-2.91-9.115-6.971-16.5-12.101-22.461-14.127-16.419-36.354-22.041-64.906-23.289a297.772 297.772 0 00-7.793-.234V13l-.5.008-.5-.008c-43.086.768-73.163 9.54-84.8 46-7.672 24.36-4.931 35.866-2.377 46.591 1.238 5.196 2.432 10.208 2.377 16.409.032 3.753-1.059 6.691-2.85 9.193-2.459 3.433-6.237 6.044-10.242 8.812-8.308 5.742-17.595 12.161-18.108 27.995-.17 17.332 7.797 25.139 14.007 31.223 4.023 3.941 7.308 7.16 7.164 11.777-.087 3.259-3.403 8.267-7.38 14.273-10.53 15.901-25.69 38.795 2.211 54.727z"
            fill="colors.hair"/>
      <path fill-rule="evenodd" clip-rule="evenodd" d="M50.58 122.446c22.536-29.919 73.489-29.122 96.087-61.144 15.398 24.088 41.819 44.648 71.164 55.625.301-.854.08-1.85.367-2.694 2.155-14.144 9.144-24.378-.574-55.233-11.637-36.46-41.714-45.232-84.8-45.984a465.51 465.51 0 00-1-.016c-43.086.768-73.163 9.54-84.8 46-11.388 36.16.17 43.999 0 63 .033 3.753-1.058 6.691-2.85 9.193.184.402 4.154-5.756 6.406-8.747z"
            fill="colors.hair"/>
    </svg>