<svg>
    <path d="M151.117 28.283C154.176 25.31 156 21.568 156 17.5 156 7.835 145.703 0 133 0s-23 7.835-23 17.5c0 4.093 1.846 7.857 4.94 10.837-.986.222-1.954.454-2.903.693-15.092 3.808-24.02 14.621-31.68 30.618-3.761 7.855-5.991 17.143-6.334 25.833-.135 3.412.325 6.934 1.245 10.22.337 1.205 2.155 5.386 2.654 2.008.099-.665-.073-1.478-.243-2.279-.117-.554-.233-1.103-.257-1.592-.078-1.569.005-3.157.112-4.723.2-2.928.722-5.8 1.65-8.59 1.328-3.988 3.017-8.312 5.603-11.677.96-1.248 1.878-2.697 2.87-4.265C93.294 55.686 101.345 42.975 133 41.67c34.303-1.414 46.776 21.666 51.213 29.875.379.702.699 1.295.97 1.755 2.666 4.534 2.779 9.746 2.891 14.911.059 2.711.118 5.41.545 7.989.472 2.85 1.545 2.786 2.132.237.997-4.33 1.468-8.828 1.151-13.279-.718-10.048-4.405-36.453-24.593-48.153-5.442-3.154-10.871-5.319-16.192-6.723z"
          fill="colors.hair"/>
</svg>