    <svg>
      <path d="M187.709 56.124c.892 3.247 2.163 11.95-.072 14.833-.746.962-5.841-1.74-7.966-2.913-1.243-.687-2.415-1.34-3.532-1.963-14.915-8.316-19.735-11.004-45.893-10.623-28.116.409-47.379 13.582-48.462 14.93-.754.937-1.716 3.44-2.508 10.412-.25 2.208-.32 4.97-.39 7.713-.15 5.922-.298 11.76-2.255 11.75-2.44-.013-2.97-23.786-1.917-33.217.04-.352.106-.773.178-1.226.223-1.407.496-3.129.155-4.114-.153-.444-.54-.714-.937-.991-.62-.434-1.265-.884-1.077-2.04.212-1.305 1.092-1.429 1.964-1.551.569-.08 1.135-.16 1.509-.567 1.128-1.228.453-1.867-.318-2.597-.455-.431-.944-.894-1.115-1.53-.634-2.36 1.024-3.094 2.687-3.83l.38-.169c.687-.31 1.103-.416 1.42-.498.593-.152.848-.217 1.886-1.348-2.131-1.563-2.902-3.691.016-4.833.56-.219 1.522-.208 2.5-.198 1.19.013 2.403.026 2.936-.374.148-.111.244-.53.33-.904.06-.264.115-.506.18-.598 1.35-1.931 1.234-3.399 1.078-5.39a59.637 59.637 0 01-.068-.926c-.129-2.038-.112-3.909 2.329-4.112 1.004-.084 1.894.39 2.77.858.544.29 1.083.578 1.641.728.875.235 1.1.435 1.321.432.189-.002.375-.152.958-.553 1.187-.818 1.31-2.05 1.434-3.29.11-1.087.219-2.181 1.042-3.013 1.576-1.59 2.798-.63 3.996.31.643.505 1.28 1.005 1.96 1.1 2.546.355 3.064-1.063 3.622-2.59.367-1.005.752-2.058 1.745-2.681 1.829-1.15 2.647-.048 3.434 1.013.499.672.985 1.327 1.709 1.384 1.004.079 2.506-1.093 3.839-2.133.814-.636 1.565-1.221 2.099-1.442 2.269-.936 3.917.064 5.585 1.077 1.408.855 2.83 1.718 4.652 1.434.298-.046.573-.091.831-.134 2.238-.37 3.107-.513 5.446.962 1.69 1.065 2.52.91 3.738.683.606-.113 1.308-.244 2.26-.251 1.111-.009 1.986.497 2.829.984.693.4 1.365.79 2.13.869.423.044.837-.155 1.259-.357.42-.202.848-.407 1.301-.38 1.827.111 2.688 1.493 3.554 2.884.668 1.072 1.339 2.15 2.46 2.652 1.619.726 3.436.248 5.171-.208.783-.206 1.549-.408 2.274-.493 3.959-.464 3.277 1.968 2.549 4.56-.318 1.132-.644 2.295-.595 3.26 1.148.268 2.305-.153 3.46-.573 1.092-.397 2.183-.794 3.264-.607 3.398.586 2.254 4.021 1.442 6.46l-.074.22c.635-.012 1.538-.205 2.552-.422 2.863-.611 6.619-1.414 7.78 1.129.479 1.051.014 2.31-.44 3.537-.313.847-.62 1.678-.607 2.415.026 1.527.71 2.896 1.396 4.267.455.91.912 1.823 1.175 2.783z"
            fill="colors.hair"/>
      <path d="M186.361 73.608c.254.176.427.296.471.32 1.757.99 3.148 10.9 3.216 14.69.042 2.338.079 11.256-2.394 10.485-.753-.235-1.902-4.956-2.066-7.719-.163-2.763-1.733-12.164-4.141-16.49a11.833 11.833 0 00-.526-.814c-.649-.952-1.437-2.109-.919-2.745.722-.887 1.426-.575 2.259-.207.142.062.287.126.436.187.868.35 2.771 1.672 3.664 2.293z"
            fill="colors.hair"/>
    </svg>