    <svg>
      <path d="M94.703 69.386c-4.624 24.473-16.011 42.725-25.742 41.009a7.485 7.485 0 01-1.961-.637V89c0-22.474 11.233-42.324 28.39-54.243.486 2.389.841 4.993 1.056 7.77 10.694-1.546 23.348-2.44 36.908-2.44 13.269 0 25.67.856 36.217 2.341.215-2.738.566-5.306 1.046-7.666C187.771 46.682 199 66.53 199 89v20.762a7.463 7.463 0 01-1.953.633c-9.716 1.713-21.085-16.484-25.722-40.905-10.915 1.642-23.959 2.597-37.971 2.597-14.305 0-27.6-.995-38.651-2.7z"
            fill="#000" fill-opacity=".16"/>
      <path d="M133 0c-11.211 0-21.91 2.196-31.688 6.182A21.712 21.712 0 0098.5 6c-6.701 0-12.774 3.075-17.197 8.057-18.044.934-33.463 13.312-40.774 30.9C32.507 49.557 27 59.043 27 70c0 .58.015 1.154.046 1.725C20.739 81.265 17 93.135 17 106c0 7.331 1.214 14.339 3.425 20.777A32.064 32.064 0 0020 132c0 9.454 4.1 17.814 10.378 22.884C37.74 172.684 53.61 185 72 185c1.498 0 2.98-.082 4.441-.242C81.889 189.907 88.879 193 96.5 193c4.441 0 8.668-1.05 12.5-2.946v-9.443c-17.53-8.328-30.048-25.496-31.791-45.744C71.43 134.002 67 129.019 67 123v-13c0-1.721.362-3.358 1.015-4.838.31.099.625.176.946.233 9.73 1.716 21.118-16.536 25.742-41.009 11.051 1.706 24.346 2.7 38.651 2.7 14.012 0 27.056-.954 37.971-2.596 4.637 24.42 16.006 42.618 25.722 40.905.319-.056.632-.133.939-.23A11.958 11.958 0 01199 110v13c0 6.019-4.431 11.002-10.209 11.867-1.743 20.248-14.26 37.416-31.791 45.744v9.443c3.832 1.896 8.059 2.946 12.5 2.946 7.621 0 14.611-3.093 20.059-8.242 1.461.16 2.943.242 4.441.242 18.39 0 34.26-12.316 41.622-30.116C241.9 149.814 246 141.454 246 132c0-1.785-.146-3.531-.426-5.223C247.786 120.339 249 113.331 249 106c0-12.865-3.739-24.736-10.046-34.275.031-.57.046-1.146.046-1.725 0-10.957-5.507-20.443-13.529-25.043-7.311-17.588-22.73-29.966-40.774-30.9C180.274 9.075 174.201 6 167.5 6c-.951 0-1.889.062-2.812.182C154.91 2.196 144.211 0 133 0z"
            fill="colors.hair"/>
    </svg>