    <svg>
      <path d="M250 70.5c0 .8-.033 1.59-.097 2.374C256.882 82.449 261 94.244 261 107a57.867 57.867 0 01-3.667 20.341A28.6 28.6 0 01258 133.5c0 9.788-4.934 18.424-12.451 23.555C236.837 174.792 218.594 187 197.5 187a54.12 54.12 0 01-5.81-.312A36.355 36.355 0 01168.5 195c-4.018 0-7.884-.649-11.5-1.849v-12.54c17.531-8.328 30.048-25.496 31.791-45.744C194.569 134.002 199 129.019 199 123v-13c0-5.946-4.325-10.882-10-11.834V92c0-5.441-.776-10.702-2.224-15.676l1.377 12.87-11.34-24-45.136-19.523-30.114 10.557L80.065 76.42l-.045-2.609A55.927 55.927 0 0077 92v6.166c-5.675.952-10 5.888-10 11.834v13c0 6.019 4.43 11.002 10.209 11.867 1.743 20.248 14.26 37.416 31.791 45.744v10.944A36.36 36.36 0 0193.5 195a36.352 36.352 0 01-23.19-8.312 54.13 54.13 0 01-5.81.312c-21.094 0-39.337-12.208-48.049-29.945C8.934 151.924 4 143.288 4 133.5c0-2.115.23-4.175.667-6.159A57.872 57.872 0 011 107c0-12.756 4.118-24.55 11.097-34.126A28.892 28.892 0 0112 70.5c0-11.297 6.573-21.06 16.104-25.67 8.433-18.128 26.454-30.894 47.546-31.78A28.406 28.406 0 0195.5 5c2.327 0 4.589.279 6.754.805C111.776 2.058 122.148 0 133 0c10.346 0 20.255 1.87 29.408 5.292A28.728 28.728 0 01166.5 5a28.407 28.407 0 0119.85 8.05c21.092.886 39.113 13.652 47.546 31.78C243.427 49.44 250 59.203 250 70.5z"
            fill="colors.hair"/>
      <path d="M188.369 98.975a48.7 48.7 0 00.631-7.823C189 62.35 163.704 39 132.5 39S76 62.35 76 91.152c0 2.659.216 5.271.631 7.823 4.09-25.092 27.545-44.33 55.869-44.33 28.324 0 51.78 19.238 55.869 44.33z"
            fill="colors.accessory"/>
    </svg>