    <svg >
      <path d="M50 90.5c0 4.55 1.695 8.643 4.853 10.773.905.61 2.47.925 4.147 1.067V182a8 8 0 008 8h42v-9.389c-17.53-8.328-30.048-25.496-31.791-45.744C71.43 134.002 67 129.019 67 123v-13c0-3.491 1.49-6.633 3.87-8.826 11.539-2.619 24.1-7.536 36.472-14.679 12.131-7.004 22.502-15.237 30.479-23.743-3.427 7.908-7.576 14.836-12.449 20.783 12.675-5.523 21.306-14.403 25.892-26.639.377.922.771 1.843 1.18 2.762 10.256 23.035 27.874 39.36 45.762 44.745.513 2.11.794 4.081.794 5.597v13c0 6.019-4.431 11.002-10.209 11.867-1.743 20.248-14.26 37.416-31.791 45.744V190h18c17.673 0 32-14.327 32-32v-54.125c0-.07-.01-.162-.031-.274-.073-5.64-.279-18.873-.609-21.375C201.577 45.976 170.556 18 133 18c-36.085 0-66.137 25.828-73 60-5.523 0-10 5.596-10 12.5z"
            fill="colors.hair"/>
      <path d="M40 145c-.085-18.985 30.32-97.205 41-110 7.923-9.491 27.695-15.45 52-15 24.305.45 44.862 3.812 53 14 12.324 15.428 40.085 92.015 40 111-.099 21.266-9.622 33.59-18.609 45.221-1.494 1.933-2.972 3.847-4.391 5.779-10.279-2.665-27.854-5.184-46-6.682v-8.707c18.92-8.988 32-28.272 32-50.611V92a56.96 56.96 0 00-.14-4h-76.802l-2.805-21.444L105.374 88H77.141a56.837 56.837 0 00-.14 4v38c0 22.339 13.08 41.623 31.999 50.611v8.707c-18.145 1.498-35.72 4.017-46 6.682-1.418-1.932-2.896-3.845-4.39-5.777v-.002C49.623 178.591 40.1 166.266 40 145z"
            fill="colors.hair"/>
    </svg>