    <svg>
      <path fill-rule="evenodd" clip-rule="evenodd" d="M69.033 76.213c12.938-33.084 26.613-49.626 41.025-49.626.539 0 29.253-.238 48.055-.36C178.767 35.585 193 55.304 193 78.115V93h-82.942l-2.805-23.18L103.374 93H69V78.115c0-.637.011-1.27.033-1.902z"
            fill="#000" fill-opacity=".16"/>
      <path d="M40 145c-.085-18.985 30.32-97.205 41-110 7.923-9.491 27.695-15.45 52-15 24.305.45 44.862 3.812 53 14 12.324 15.428 40.085 92.015 40 111-.099 21.266-9.622 33.59-18.609 45.221-1.494 1.933-2.972 3.847-4.391 5.779-10.279-2.665-27.854-5.184-46-6.682v-8.707c18.92-8.988 32-28.272 32-50.611V92a56.96 56.96 0 00-.14-4h-76.802l-2.805-21.444L105.374 88H77.141a56.837 56.837 0 00-.14 4v38c0 22.339 13.08 41.623 31.999 50.611v8.707c-18.145 1.498-35.72 4.017-46 6.682-1.418-1.932-2.896-3.845-4.39-5.777v-.002C49.623 178.591 40.1 166.266 40 145z"
            fill="colors.hair"/>
    </svg>