<svg>
    <path fill-rule="evenodd" clip-rule="evenodd" d="M88.183 37.856c5.141-3.832 11.219-7.116 17.559-8.378 6.447-1.282 10.359-1.593 16.705-.073 1.633.392 2.184.78 3.621-.148 1.211-.783 9.662-9.49 35.42-4.657 26.035 4.885 33.769 44.075 43.427 45.566 3.48.537 7.782-.384 7.916-2.527 3.964 6.034 5.008 14.007 3.327 21.074-1.446 6.086-4.496 11.804-9.989 15.137-4.725 2.867-11.259 4.116-16.721 3.587-2.485-.24-4.745-.763-7.031-1.766-2.759-1.209-4.957-3.391-7.665-4.543a53.896 53.896 0 009.176 6.418c1.64.907 3.304 1.532 5.113 2.024 1.236.336 3.762 1.481 4.956 1.182-7.807 1.396-15.16.18-22.319-3.163-3.231-1.508-6.339-3.332-9.191-5.476-2.833-2.13-6.094-4.307-8.311-7.11.931 1.204-.697-.586-.912-.805a67.764 67.764 0 01-1.787-1.895 74.075 74.075 0 01-2.931-3.391c-1.993-2.486-3.851-5.082-5.507-7.803-1.677-2.756-8.358-13.873-10.375-16.49 1.905 5.708 3.98 11.418 6.407 16.925-4.713-1.47-9.283-5.544-12.295-9.34-3.392-4.276-5.4-9.268-6.108-14.666-3.825 10.416-12.785 18.63-22.032 24.295 2.003-3.73 5.056-6.885 7.052-10.678-9.19 9.329-24.568 13.893-28.595 27.574-1.032-4.758-4.353-8.58-5.347-13.433-1.105-5.389-1.897-11.11-1.722-16.616.398-12.242 8.632-23.723 18.16-30.824z"
          fill="colors.hair"/>
</svg>