    <svg>
      <path d="M175.831 55.922l-.03.018c.757.878 1.486 1.78 2.186 2.706C184.907 67.963 189 79.502 189 92v5.5c0-15.772-6.7-29.98-17.409-39.931-11.584 3.77-49.581 14.274-77.63.42C83.513 67.92 77 81.95 77 97.5V92a55.75 55.75 0 0111.013-33.354c.71-.94 1.45-1.855 2.22-2.746a5.163 5.163 0 01-.028-.022C100.478 43.721 115.838 36 133 36c17.183 0 32.559 7.74 42.831 19.922z"
            fill="#000" fill-opacity=".16"/>
      <path d="M92.537 53.286C82.913 63.342 77 76.98 77 92v6.166a11.968 11.968 0 00-6.485 3.349l.702-17.372c.56-13.884 7.234-26.125 17.363-34.173-2.207-3.843-1.455-10.333 7.802-13.093 5.065-1.51 7.572-5.087 10.234-8.884 3.503-4.995 7.272-10.371 17.487-11.92 9.866-1.494 13.227-.88 17.043-.184 3.138.572 6.584 1.201 14.205.762 9.852-.57 16.862-3.993 21.424-6.221 3.262-1.593 5.272-2.575 6.176-1.467 15.42 18.903 6.968 33.79-6.198 41.953C186.692 59.354 193 71.94 193 86v13.605a11.921 11.921 0 00-4-1.44V92c0-15.256-6.101-29.087-15.995-39.187-7.77 2.744-50.391 16.543-80.468.473zM223.61 226.052c3.059 5.601 4.049 11.122 3.499 16.377C216.051 216.878 190.613 199 161 199h-4v-18.389c17.531-8.328 30.048-25.496 31.791-45.744a11.918 11.918 0 004.209-1.472v20.714c0 20.759 11.475 39.779 22.146 57.465 2.972 4.926 5.882 9.749 8.464 14.478zM68.697 146.504l.661-16.359a11.993 11.993 0 007.85 4.722c1.744 20.248 14.261 37.416 31.792 45.744V199h-4c-11.197 0-21.798 2.556-31.25 7.116-2.986-18.284-4.297-38.673-5.053-59.612z"
            fill="colors.hair"/>
      <path fill-rule="evenodd" clip-rule="evenodd" d="M90.878 52.361c33.225 19.3 83.367 0 83.367 0 14.53-7.772 25.086-23.319 8.706-43.398-2.168-2.658-10.706 6.713-27.6 7.688-16.893.974-13.271-3.301-31.248-.577s-15.991 17.304-27.721 20.803c-11.73 3.498-9.804 12.986-5.504 15.484z"
            fill="#fff" fill-opacity=".2"/>
    </svg>