<svg>
    <path fill-rule="evenodd" clip-rule="evenodd" d="M193.765 70.766c-.264-3.317-.732-6.614-1.518-9.855-.625-2.576-1.478-5.034-2.487-7.491-.609-1.485-2.032-3.524-2.2-5.126-.165-1.577 1.067-3.325 1.329-5.162a15.975 15.975 0 00-.155-5.438c-.833-4.023-3.594-7.764-7.857-8.813-.952-.234-2.964.055-3.636-.5-.771-.635-1.308-2.8-2.006-3.669-1.991-2.476-5.095-4.07-8.369-3.514-2.411.409-1.027.907-2.834-.512-1.005-.788-1.756-1.993-2.732-2.847-1.467-1.283-3.15-2.38-4.892-3.282-4.557-2.358-9.754-4.072-14.844-4.908-9.285-1.524-19.195-.195-28.195 2.22-4.479 1.201-8.987 2.726-13.147 4.743-1.783.864-2.813 1.582-4.672 1.808-2.93.357-5.41.339-8.184 1.581-8.536 3.822-12.381 12.689-9.06 21.174a14.637 14.637 0 002.82 4.584c1.521 1.68 2.072 1.35.762 3.282a52.785 52.785 0 00-4.955 9.172c-3.529 8.402-4.12 17.864-3.89 26.824.081 3.137.216 6.313.71 9.42.214 1.344.274 3.872 1.282 4.87.512.506 1.241.788 1.969.587 1.71-.474 1.121-1.735 1.161-2.906.2-5.884-.07-11.089 1.33-16.901 1.033-4.295 2.755-8.195 4.988-12.036 2.838-4.884 5.903-9.173 9.806-13.355.918-.984 1.119-1.4 2.35-1.472.931-.054 2.295.584 3.2.805 1.999.487 4 .968 6.034 1.296 3.74.603 7.444.644 11.217.525 7.426-.232 14.885-.753 22.085-2.623 4.782-1.242 9.022-3.47 13.602-5.105.082-.029 1.23-.847 1.431-.814.281.047 1.977 1.826 2.263 2.05 2.226 1.746 4.667 2.479 7.07 3.83 2.964 1.667.094-.718 1.728 1.359.477.605.721 1.726 1.103 2.411a18.086 18.086 0 004.931 5.624c1.955 1.47 4.893 2.18 5.89 4.095.769 1.477 1.028 3.484 1.648 5.06 1.628 4.136 3.777 7.992 5.926 11.887 1.732 3.14 3.625 5.881 3.818 9.468.067 1.248-1.121 8.737 1.773 6.46.429-.338 1.353-4.156 1.543-4.804.772-2.633 1.046-5.381 1.395-8.086.694-5.38.923-10.498.469-15.916z"
          fill="colors.hair"/>
</svg>