    <svg>
      <path d="M157 180.611V199h4c17.491 0 33.525 6.237 46 16.608V92c0-40.87-33.131-74-74-74-40.87 0-74 33.13-74 74v183.716c13.57-1.94 24-13.61 24-27.716v-45.577A71.952 71.952 0 01105 199h4v-18.389a56.236 56.236 0 01-26-25.365v-61.98c9.147-2.975 18.778-7.249 28.342-12.77 15.403-8.894 28.089-19.555 36.724-30.099a86.935 86.935 0 007.044 15.488c8.768 15.185 21.114 26.349 33.89 32.032v.249c.4.067.794.154 1.18.26.774.323 1.55.626 2.326.91A11.998 11.998 0 01199 110v13c0 6.019-4.431 11.002-10.209 11.867-1.743 20.248-14.26 37.416-31.791 45.744z"
            fill="colors.hair"/>
      <path d="M157 199v-18.389c17.531-8.328 30.048-25.496 31.791-45.744C194.569 134.002 199 129.019 199 123v-13c0-4.643-2.636-8.669-6.494-10.665 4.869 1.773 9.757 2.737 14.494 2.813v113.46C194.525 205.237 178.491 199 161 199h-4zm-74 3.423v-47.177a56.236 56.236 0 0026 25.365V199h-4c-7.673 0-15.065 1.2-22 3.423zM189 97.917v.249c.4.067.794.154 1.18.26a55.343 55.343 0 01-1.18-.509z"
            fill="#000" fill-opacity=".27"/>
    </svg>