    <svg>
      <path d="M67 113c10.859-22.702 34.67-31.597 55.44-39.355 13.32-4.976 25.389-9.485 31.99-16.868 2.233 2.027 4.762 4.058 7.424 6.194C172.063 71.166 184.212 80.917 189 98v.165a12.01 12.01 0 019.815 9.726v-21.85a46.41 46.41 0 00-.158-3.838C203.2 65.198 195.565 44.415 186 35c-9.481-8.818-22.302-12.319-30.953-8.478C143.442 8.982 109.905 13.241 90 28c-13.22 9.808-24.787 25.721-27.845 45.751A46.18 46.18 0 0061 84.046v88.495c-.192 31.515-7.394 82.497-21 90.459 62.358 16.798 71.93-38.145 69-82v-.389c-17.53-8.328-30.048-25.496-31.791-45.744C71.43 134.003 67 129.019 67 123v-10zm90 67.611c17.531-8.328 30.048-25.496 31.791-45.744a12.007 12.007 0 0010.024-9.759v1.363c0 15.828 3.758 31.43 10.963 45.523l26.949 52.707c7.225 14.132 4.676 29.741-3.937 40.761C229.962 228.285 198.901 199 161 199h-4v-18.389z"
            fill="colors.hair"/>
      <path d="M67 112.999c10.86-22.7 34.67-31.595 55.44-39.354 13.319-4.976 25.389-9.484 31.989-16.868 2.234 2.027 4.763 4.058 7.425 6.194 10.184 8.175 22.297 17.898 27.11 34.902-4.577-14.03-15.759-21.215-25.604-27.54-3.211-2.064-6.28-4.036-8.931-6.124-6.601 6.407-18.67 10.32-31.989 14.638C101.67 85.58 77.86 93.299 67 112.999z"
            fill="#000" fill-opacity=".16"/>
    </svg>