    <svg>
      <path d="M133 18c-40.87 0-74 33.13-74 74v96a73.889 73.889 0 004.125 24.423C74.924 203.973 89.381 199 105 199h4v-18.389c-17.53-8.328-30.048-25.496-31.791-45.744C71.43 134.002 67 129.019 67 123v-13c0-1.147.16-2.256.461-3.306 17.13-6.012 33.746-21.936 43.585-44.036.41-.92.803-1.84 1.181-2.762 4.586 12.236 13.216 21.116 25.891 26.639-4.872-5.947-9.022-12.875-12.448-20.783 7.976 8.506 18.347 16.74 30.479 23.743 14.33 8.274 28.916 13.562 41.872 15.75A11.96 11.96 0 01199 110v13c0 6.019-4.431 11.002-10.209 11.867-1.743 20.248-14.26 37.416-31.791 45.744V199h4c15.619 0 30.076 4.973 41.875 13.423A73.896 73.896 0 00207 188V92c0-40.87-33.131-74-74-74z"
            fill="colors.hair"/>
      <path d="M111.046 62.658C99.59 88.39 78.946 105.75 59 108.838v4c19.945-3.088 40.59-20.448 52.046-46.18.41-.92.803-1.84 1.181-2.762 4.586 12.236 13.216 21.116 25.891 26.639a78.162 78.162 0 01-4.622-6.26c-10.175-5.567-17.264-13.693-21.269-24.379a98.804 98.804 0 01-1.181 2.762zm18.457 10.982c7.363 7.112 16.373 13.924 26.646 19.855 17.752 10.25 35.898 15.918 50.851 16.786v-4c-14.953-.868-33.099-6.536-50.851-16.786-12.132-7.004-22.503-15.237-30.479-23.743a98.293 98.293 0 003.833 7.888z"
            fill="#000" fill-opacity=".16"/>
    </svg>