    <svg>
      <path d="M100.374 29.141c1.88-2.864 4.479-5.43 7.626-7.57v15.306c0 5.823 3.978 10.976 10.078 14.118l-.078.062.909 2.865c3.878 1.994 8.341 3.13 13.091 3.13s9.213-1.136 13.091-3.13l.909-2.865-.078-.062C152.022 47.853 156 42.7 156 36.877V22.279c2.684 1.979 4.923 4.28 6.597 6.819C201.159 30.465 232 62.157 232 101.052V110H32v-8.948c0-38.549 30.294-70.022 68.374-71.91z"
      fill="colors.clothes"/>
      <path d="M108 21.572c-6.767 4.602-11 11.168-11 18.456 0 7.398 4.362 14.052 11.308 18.664l6.113-4.816 4.579.332-1-3.151.078-.062C111.978 47.853 108 42.7 108 36.877V21.57zm48 15.305c0 5.823-3.978 10.976-10.078 14.118l.078.062-1 3.15 4.579-.33 5.65 4.45C161.863 53.733 166 47.234 166 40.027c0-6.921-3.818-13.192-10-17.748v14.598z" fill="#fff" fill-opacity=".75"/>
    </svg>